# xmcd
#
# Track frame offsets:
#	150
#	15428
#	31457
#	45148
#	62143
#	81645
#	97966
#	117047
#	133544
#	146577
#	162386
#	182784
#
# Disc length: 2644 seconds
#
# Revision: 1
# Processed by: cddbd v1.5.2PL0 Copyright (c) Steve Scherf et al.
# Submitted via: audiograbber 1.83.01
#
DISCID=980a520c
DTITLE=Uncle Kracker - Happy Hour
DYEAR=2009
DGENRE=Country/Rock
TTITLE0=Smile
TTITLE1=Another Love Song (Album Version)
TTITLE2=My Girlfriend (Album Version)
TTITLE3=Livin' The Dream (Album Version)
TTITLE4=Corner Bar (Album Version)
TTITLE5=Me Again [feat. Jesse Lee] (Album Version)
TTITLE6=Good To Be Me (Album Version)
TTITLE7=I Hate California (Album Version)
TTITLE8=Hot Mess (Album Version)
TTITLE9=Hey Hey Hey (Album Version)
TTITLE10=I'm Not Leaving (Album Version)
TTITLE11=Mainstreet (Album Version)
EXTD=
EXTT0=
EXTT1=
EXTT2=
EXTT3=
EXTT4=
EXTT5=
EXTT6=
EXTT7=
EXTT8=
EXTT9=
EXTT10=
EXTT11=
PLAYORDER=
